<svg width="37" height="11" viewBox="0 0 37 11" fill="none" xmlns="http://www.w3.org/2000/svg">
<path d="M-5.65797e-05 10.598V6.79493e-06H1.30194V4.52201L1.06394 4.39601C1.25061 3.92001 1.54928 3.55134 1.95994 3.29001C2.37994 3.01934 2.86994 2.88401 3.42994 2.88401C3.97128 2.88401 4.45194 3.00534 4.87194 3.24801C5.30128 3.49067 5.63728 3.82667 5.87994 4.25601C6.13194 4.68534 6.25794 5.17067 6.25794 5.71201V10.598H4.94194V6.13201C4.94194 5.71201 4.86261 5.35734 4.70394 5.06801C4.55461 4.77867 4.34461 4.55467 4.07394 4.39601C3.80328 4.22801 3.49061 4.14401 3.13594 4.14401C2.79061 4.14401 2.47794 4.22801 2.19794 4.39601C1.91794 4.55467 1.69861 4.78334 1.53994 5.08201C1.38128 5.37134 1.30194 5.72134 1.30194 6.13201V10.598H-5.65797e-05ZM11.705 10.766C10.977 10.766 10.319 10.598 9.73104 10.262C9.14304 9.91667 8.67637 9.44534 8.33104 8.84801C7.9857 8.25067 7.81304 7.57401 7.81304 6.81801C7.81304 6.06201 7.98104 5.39001 8.31704 4.80201C8.66237 4.21401 9.12904 3.74734 9.71704 3.40201C10.305 3.05667 10.9677 2.88401 11.705 2.88401C12.433 2.88401 13.091 3.05667 13.679 3.40201C14.267 3.73801 14.729 4.20001 15.065 4.78801C15.4104 5.37601 15.583 6.05267 15.583 6.81801C15.583 7.58334 15.4057 8.26467 15.051 8.86201C14.6964 9.45001 14.225 9.91667 13.637 10.262C13.0584 10.598 12.4144 10.766 11.705 10.766ZM11.705 9.50601C12.1717 9.50601 12.5917 9.38934 12.965 9.15601C13.3477 8.92267 13.6464 8.60067 13.861 8.19001C14.085 7.77934 14.197 7.32201 14.197 6.81801C14.197 6.30467 14.085 5.85201 13.861 5.46001C13.6464 5.05867 13.3477 4.74134 12.965 4.50801C12.5917 4.26534 12.1717 4.14401 11.705 4.14401C11.229 4.14401 10.7997 4.26534 10.417 4.50801C10.0437 4.74134 9.74504 5.05867 9.52104 5.46001C9.29704 5.85201 9.18504 6.30467 9.18504 6.81801C9.18504 7.32201 9.29704 7.77934 9.52104 8.19001C9.74504 8.60067 10.0437 8.92267 10.417 9.15601C10.7997 9.38934 11.229 9.50601 11.705 9.50601ZM19.2445 10.598L16.2905 3.05201H17.7465L20.1125 9.43601H19.6085L21.9885 3.05201H23.4445L20.4765 10.598H19.2445ZM27.9446 10.766C27.2166 10.766 26.5679 10.5933 25.9986 10.248C25.4293 9.90267 24.9813 9.43134 24.6546 8.83401C24.3279 8.22734 24.1646 7.55067 24.1646 6.80401C24.1646 6.04801 24.3233 5.37601 24.6406 4.78801C24.9673 4.20001 25.4059 3.73801 25.9566 3.40201C26.5166 3.05667 27.1419 2.88401 27.8326 2.88401C28.3926 2.88401 28.8873 2.98667 29.3166 3.19201C29.7553 3.38801 30.1239 3.65867 30.4226 4.00401C30.7306 4.34001 30.9639 4.72734 31.1226 5.16601C31.2906 5.59534 31.3746 6.04334 31.3746 6.51001C31.3746 6.61267 31.3653 6.72934 31.3466 6.86001C31.3373 6.98134 31.3233 7.09801 31.3046 7.21001H25.1166V6.09001H30.5486L29.9326 6.59401C30.0166 6.10867 29.9699 5.67467 29.7926 5.29201C29.6153 4.90934 29.3539 4.60601 29.0086 4.38201C28.6633 4.15801 28.2713 4.04601 27.8326 4.04601C27.3939 4.04601 26.9926 4.15801 26.6286 4.38201C26.2646 4.60601 25.9799 4.92801 25.7746 5.34801C25.5786 5.75867 25.4993 6.24867 25.5366 6.81801C25.4993 7.36867 25.5833 7.85401 25.7886 8.27401C26.0033 8.68467 26.3019 9.00667 26.6846 9.24001C27.0766 9.46401 27.5013 9.57601 27.9586 9.57601C28.4626 9.57601 28.8873 9.45934 29.2326 9.22601C29.5779 8.99267 29.8579 8.69401 30.0726 8.33001L31.1646 8.89001C31.0153 9.23534 30.7819 9.55267 30.4646 9.84201C30.1566 10.122 29.7879 10.346 29.3586 10.514C28.9386 10.682 28.4673 10.766 27.9446 10.766ZM33.0722 10.598V3.05201H34.3462V4.43801L34.2062 4.24201C34.3835 3.81267 34.6542 3.49534 35.0182 3.29001C35.3822 3.07534 35.8255 2.96801 36.3482 2.96801H36.8102V4.20001H36.1522C35.6202 4.20001 35.1909 4.36801 34.8642 4.70401C34.5375 5.03067 34.3742 5.49734 34.3742 6.10401V10.598H33.0722Z" fill="white"/>
</svg>
