<svg width="37" height="11" viewBox="0 0 37 11" fill="none" xmlns="http://www.w3.org/2000/svg">
<path d="M-5.65797e-05 10.598V-8.46386e-06H1.30194V4.52199L1.06394 4.39599C1.25061 3.91999 1.54928 3.55133 1.95994 3.28999C2.37994 3.01933 2.86994 2.88399 3.42994 2.88399C3.97128 2.88399 4.45194 3.00533 4.87194 3.24799C5.30128 3.49066 5.63728 3.82666 5.87994 4.25599C6.13194 4.68533 6.25794 5.17066 6.25794 5.71199V10.598H4.94194V6.13199C4.94194 5.71199 4.86261 5.35733 4.70394 5.06799C4.55461 4.77866 4.34461 4.55466 4.07394 4.39599C3.80328 4.22799 3.49061 4.14399 3.13594 4.14399C2.79061 4.14399 2.47794 4.22799 2.19794 4.39599C1.91794 4.55466 1.69861 4.78332 1.53994 5.08199C1.38128 5.37133 1.30194 5.72133 1.30194 6.13199V10.598H-5.65797e-05ZM11.705 10.766C10.977 10.766 10.319 10.598 9.73104 10.262C9.14304 9.91666 8.67637 9.44533 8.33104 8.84799C7.9857 8.25066 7.81304 7.57399 7.81304 6.81799C7.81304 6.06199 7.98104 5.38999 8.31704 4.80199C8.66237 4.21399 9.12904 3.74733 9.71704 3.40199C10.305 3.05666 10.9677 2.88399 11.705 2.88399C12.433 2.88399 13.091 3.05666 13.679 3.40199C14.267 3.73799 14.729 4.19999 15.065 4.78799C15.4104 5.37599 15.583 6.05266 15.583 6.81799C15.583 7.58333 15.4057 8.26466 15.051 8.86199C14.6964 9.44999 14.225 9.91666 13.637 10.262C13.0584 10.598 12.4144 10.766 11.705 10.766ZM11.705 9.50599C12.1717 9.50599 12.5917 9.38933 12.965 9.15599C13.3477 8.92266 13.6464 8.60066 13.861 8.18999C14.085 7.77933 14.197 7.32199 14.197 6.81799C14.197 6.30466 14.085 5.85199 13.861 5.45999C13.6464 5.05866 13.3477 4.74132 12.965 4.50799C12.5917 4.26532 12.1717 4.14399 11.705 4.14399C11.229 4.14399 10.7997 4.26532 10.417 4.50799C10.0437 4.74132 9.74504 5.05866 9.52104 5.45999C9.29704 5.85199 9.18504 6.30466 9.18504 6.81799C9.18504 7.32199 9.29704 7.77933 9.52104 8.18999C9.74504 8.60066 10.0437 8.92266 10.417 9.15599C10.7997 9.38933 11.229 9.50599 11.705 9.50599ZM19.2445 10.598L16.2905 3.05199H17.7465L20.1125 9.43599H19.6085L21.9885 3.05199H23.4445L20.4765 10.598H19.2445ZM27.9446 10.766C27.2166 10.766 26.5679 10.5933 25.9986 10.248C25.4293 9.90266 24.9813 9.43133 24.6546 8.83399C24.3279 8.22733 24.1646 7.55066 24.1646 6.80399C24.1646 6.04799 24.3233 5.37599 24.6406 4.78799C24.9673 4.19999 25.4059 3.73799 25.9566 3.40199C26.5166 3.05666 27.1419 2.88399 27.8326 2.88399C28.3926 2.88399 28.8873 2.98666 29.3166 3.19199C29.7553 3.38799 30.1239 3.65866 30.4226 4.00399C30.7306 4.33999 30.9639 4.72732 31.1226 5.16599C31.2906 5.59533 31.3746 6.04333 31.3746 6.50999C31.3746 6.61266 31.3653 6.72933 31.3466 6.85999C31.3373 6.98133 31.3233 7.09799 31.3046 7.20999H25.1166V6.08999H30.5486L29.9326 6.59399C30.0166 6.10866 29.9699 5.67466 29.7926 5.29199C29.6153 4.90933 29.3539 4.60599 29.0086 4.38199C28.6633 4.15799 28.2713 4.04599 27.8326 4.04599C27.3939 4.04599 26.9926 4.15799 26.6286 4.38199C26.2646 4.60599 25.9799 4.92799 25.7746 5.34799C25.5786 5.75866 25.4993 6.24866 25.5366 6.81799C25.4993 7.36866 25.5833 7.85399 25.7886 8.27399C26.0033 8.68466 26.3019 9.00666 26.6846 9.23999C27.0766 9.46399 27.5013 9.57599 27.9586 9.57599C28.4626 9.57599 28.8873 9.45933 29.2326 9.22599C29.5779 8.99266 29.8579 8.69399 30.0726 8.32999L31.1646 8.88999C31.0153 9.23533 30.7819 9.55266 30.4646 9.84199C30.1566 10.122 29.7879 10.346 29.3586 10.514C28.9386 10.682 28.4673 10.766 27.9446 10.766ZM33.0722 10.598V3.05199H34.3462V4.43799L34.2062 4.24199C34.3835 3.81266 34.6542 3.49533 35.0182 3.28999C35.3822 3.07533 35.8255 2.96799 36.3482 2.96799H36.8102V4.19999H36.1522C35.6202 4.19999 35.1909 4.36799 34.8642 4.70399C34.5375 5.03066 34.3742 5.49733 34.3742 6.10399V10.598H33.0722Z" fill="white"/>
</svg>
