<svg width="44" height="42" viewBox="0 0 44 42" fill="none" xmlns="http://www.w3.org/2000/svg">
<g clip-path="url(#clip0_163_119)">
<path d="M29.4122 24.5H14.5878C12.1785 24.5028 9.86865 25.4176 8.16498 27.0438C6.46131 28.6701 5.50291 30.8749 5.5 33.1748V42H38.5V33.1748C38.4971 30.8749 37.5387 28.6701 35.835 27.0438C34.1314 25.4176 31.8215 24.5028 29.4122 24.5Z" fill="black"/>
<path d="M22 21C28.0751 21 33 16.299 33 10.5C33 4.70101 28.0751 0 22 0C15.9249 0 11 4.70101 11 10.5C11 16.299 15.9249 21 22 21Z" fill="black"/>
</g>
<defs>
<clipPath id="clip0_163_119">
<rect width="44" height="42" fill="white"/>
</clipPath>
</defs>
</svg>
