<svg width="22" height="18" viewBox="0 0 22 18" fill="none" xmlns="http://www.w3.org/2000/svg">
<g clip-path="url(#clip0_1039_1235)">
<path d="M2 3H20M2 9H20M2 15H20" stroke="white" stroke-width="2.3" stroke-linecap="round"/>
<path d="M7 5.5C8.38071 5.5 9.5 4.38071 9.5 3C9.5 1.61929 8.38071 0.5 7 0.5C5.61929 0.5 4.5 1.61929 4.5 3C4.5 4.38071 5.61929 5.5 7 5.5Z" fill="white"/>
<path d="M16 11.5C17.3807 11.5 18.5 10.3807 18.5 9C18.5 7.61929 17.3807 6.5 16 6.5C14.6193 6.5 13.5 7.61929 13.5 9C13.5 10.3807 14.6193 11.5 16 11.5Z" fill="white"/>
<path d="M10 17.5C11.3807 17.5 12.5 16.3807 12.5 15C12.5 13.6193 11.3807 12.5 10 12.5C8.61929 12.5 7.5 13.6193 7.5 15C7.5 16.3807 8.61929 17.5 10 17.5Z" fill="white"/>
</g>
<defs>
<clipPath id="clip0_1039_1235">
<rect width="22" height="18" fill="white"/>
</clipPath>
</defs>
</svg>
